# xmcd
#
# Track frame offsets:
#	150
#	31362
#	51150
#	66625
#	108425
#	133465
#	149220
#	199332
#	218125
#
# Disc length: 3036 seconds
#
# Revision: 6
# Processed by: cddbd v1.5.2PL0 Copyright (c) Steve Scherf et al.
# Submitted via: EZCDAudioConverter 3.1.2.1
#
DISCID=9f0bda09
DTITLE=Bloomfield - Kooper - Stills - Super Session
DYEAR=1968
DGENRE=Blues
TTITLE0=Albert's Shuffle
TTITLE1=Stop
TTITLE2=Man's Temptation
TTITLE3=His Holy Modal Majesty
TTITLE4=Really
TTITLE5=It Takes a Lot to Laugh, It Takes a Train to Cry
TTITLE6=Season of the Witch
TTITLE7=You Don't Love Me
TTITLE8=Harvey's Tune
EXTD=
EXTT0=
EXTT1=
EXTT2=
EXTT3=
EXTT4=
EXTT5=
EXTT6=
EXTT7=
EXTT8=
PLAYORDER=
